<svg id="Layer_1" data-name="Layer 1" xmlns="http://www.w3.org/2000/svg" viewBox="0 0 686.86 924.15"><defs><style>.cls-1{fill:#1fff73;}</style></defs><rect class="cls-1" width="686.86" height="924.15" rx="187.32"/><path d="M1153.37,741.75v169a108.93,108.93,0,0,1-84.16,106v199.67a24.2,24.2,0,0,1-48.4,0V1019.62H984.2v280.45a24.2,24.2,0,1,1-48.4,0V1019.62H899.19v196.85a24.2,24.2,0,0,1-48.4,0V1016.8a108.93,108.93,0,0,1-84.16-106v-169A108.88,108.88,0,0,1,875.5,632.88h169A108.88,108.88,0,0,1,1153.37,741.75Z" transform="translate(-616.57 -497.93)"/></svg>